<?xml version="1.0" encoding="UTF-8" standalone="no"?>
<svg
   width="24"
   height="24"
   viewBox="0 0 24 24"
   fill="none"
   version="1.1"
   id="svg347"
   sodipodi:docname="bank.svg"
   inkscape:version="1.1 (c68e22c387, 2021-05-23)"
   xmlns:inkscape="http://www.inkscape.org/namespaces/inkscape"
   xmlns:sodipodi="http://sodipodi.sourceforge.net/DTD/sodipodi-0.dtd"
   xmlns="http://www.w3.org/2000/svg"
   xmlns:svg="http://www.w3.org/2000/svg">
  <sodipodi:namedview
     id="namedview349"
     pagecolor="#ffffff"
     bordercolor="#666666"
     borderopacity="1.0"
     inkscape:pageshadow="2"
     inkscape:pageopacity="0.0"
     inkscape:pagecheckerboard="0"
     showgrid="false"
     inkscape:zoom="5.759974"
     inkscape:cx="-10.677132"
     inkscape:cy="14.236175"
     inkscape:window-width="1920"
     inkscape:window-height="986"
     inkscape:window-x="-11"
     inkscape:window-y="1285"
     inkscape:window-maximized="1"
     inkscape:current-layer="svg347" />
  <defs
     id="defs345">
    <clipPath
       id="clip0">
      <rect
         width="24"
         height="24"
         fill="white"
         id="rect342" />
    </clipPath>
  </defs>
  <g
     transform="matrix(0.00234179,0,0,-0.00243256,1.2995766,23.89552)"
     fill="#000000"
     stroke="none"
     id="g159">
    <path
       d="m 1565,9790 c -304,-6 -348,-9 -417,-28 C 944,9706 800,9621 644,9466 436,9259 297,8994 205,8636 147,8407 104,8031 111,7808 c 4,-99 8,-120 32,-169 31,-63 93,-127 157,-159 61,-31 207,-39 718,-40 h 432 l 1,-707 c 4,-2719 19,-5916 28,-6053 13,-176 32,-293 57,-346 23,-49 229,-233 298,-267 93,-46 164,-57 391,-64 234,-6 382,5 473,37 82,29 169,93 317,233 l 130,124 139,-130 C 3489,76 3569,31 3734,10 c 100,-12 223,-1 309,29 86,30 176,95 321,230 70,67 132,121 136,121 4,0 65,-54 136,-121 143,-134 236,-201 320,-230 84,-30 210,-41 310,-29 164,21 245,67 450,257 73,68 135,123 139,123 4,0 59,-50 124,-110 178,-167 253,-219 368,-253 122,-36 304,-30 418,15 82,32 172,99 307,227 70,67 131,121 136,121 4,0 64,-53 133,-117 159,-150 193,-176 271,-213 104,-49 156,-55 453,-54 384,1 428,15 634,197 111,99 133,136 151,253 32,208 33,359 37,4113 l 4,3774 -40,146 c -91,331 -220,565 -435,788 -227,236 -481,383 -836,485 l -134,38 -2771,-2 c -1523,-1 -2923,-5 -3110,-8 z m 5605,-669 c 261,-10 316,-18 432,-69 257,-111 391,-238 513,-487 35,-71 69,-152 75,-180 7,-27 16,-138 20,-245 5,-107 9,-1832 10,-3832 V 670 H 8048 7875 L 7543,1002 7210,1335 6870,995 6530,655 6193,993 5855,1330 5518,993 5180,655 4840,995 4500,1335 4160,995 3820,655 3482,993 3145,1330 2815,1000 2485,670 h -177 -178 v 1103 c -1,2010 -20,6328 -29,6562 -9,207 -12,238 -36,310 -67,204 -165,334 -305,404 -44,22 -105,45 -137,53 -51,11 17,14 572,18 1117,9 4722,9 4975,1 z"
       id="path139" />
    <path
       d="m 3044,7412 c -224,-80 -296,-356 -138,-531 67,-74 138,-106 239,-106 101,0 172,32 239,106 64,71 89,144 84,239 -6,90 -30,143 -96,209 -91,91 -218,123 -328,83 z"
       id="path141" />
    <path
       d="m 4080,7421 c -85,-28 -169,-99 -209,-176 -37,-72 -45,-142 -27,-216 40,-156 161,-254 316,-254 128,0 228,61 291,177 30,56 33,71 34,143 0,98 -22,151 -92,226 -66,70 -130,101 -218,105 -38,2 -81,0 -95,-5 z"
       id="path143" />
    <path
       d="m 5082,7416 c -171,-56 -272,-254 -214,-419 38,-106 117,-180 227,-212 261,-76 498,213 375,456 -32,62 -96,126 -156,155 -66,32 -167,41 -232,20 z"
       id="path145" />
    <path
       d="m 6083,7410 c -74,-30 -146,-98 -184,-176 -62,-126 -34,-270 73,-370 72,-67 126,-89 223,-89 73,0 86,4 145,36 201,111 240,359 80,519 -90,90 -228,123 -337,80 z"
       id="path147" />
    <path
       d="m 7112,7416 c -90,-30 -185,-129 -218,-229 -34,-101 10,-254 93,-328 100,-87 244,-111 354,-57 224,110 260,383 73,548 -79,68 -208,97 -302,66 z"
       id="path149" />
    <path
       d="m 3420,6071 c -428,-7 -413,-4 -502,-99 -76,-81 -93,-122 -93,-227 0,-79 4,-96 28,-143 34,-65 93,-123 155,-154 44,-21 65,-23 327,-31 154,-5 1111,-7 2126,-4 l 1845,4 61,41 c 67,45 103,84 136,146 18,34 22,57 22,141 0,89 -3,106 -27,151 -28,54 -81,107 -149,149 l -41,27 -1757,3 c -966,1 -1925,0 -2131,-4 z"
       id="path151" />
    <path
       d="m 6625,5061 c -102,-14 -115,-39 -115,-228 v -122 l -57,-11 c -212,-43 -384,-135 -473,-254 -158,-212 -93,-496 146,-637 116,-69 263,-135 544,-246 266,-105 411,-188 445,-253 21,-40 19,-99 -4,-137 -76,-123 -445,-170 -746,-93 -44,11 -119,36 -166,55 -48,19 -102,35 -120,35 -46,0 -92,-30 -167,-108 l -63,-65 48,-49 c 55,-56 178,-122 298,-162 60,-19 291,-76 311,-76 1,0 4,-57 6,-127 4,-151 16,-182 78,-207 56,-22 174,-21 219,2 63,31 73,56 80,194 4,67 10,129 14,135 4,7 27,18 50,24 327,89 489,206 542,393 26,88 18,223 -18,299 -73,159 -256,280 -694,458 -281,114 -394,171 -453,228 -43,40 -50,53 -50,85 0,107 131,180 346,193 174,10 327,-22 491,-104 l 91,-46 66,57 c 61,54 126,136 126,160 0,5 -22,31 -49,57 -66,64 -210,133 -345,166 l -106,27 v 55 c 0,93 -18,222 -35,247 -8,13 -25,30 -38,38 -27,17 -134,27 -202,17 z"
       id="path153" />
    <path
       d="m 3100,4711 c -79,-7 -140,-40 -199,-107 -143,-163 -92,-408 107,-506 l 67,-33 799,-3 c 440,-2 861,1 936,7 155,10 188,22 257,91 63,63 87,120 91,215 5,105 -21,176 -86,243 -65,66 -106,83 -226,93 -113,9 -1644,9 -1746,0 z"
       id="path155" />
    <path
       d="m 3185,3360 c -116,-5 -147,-9 -181,-27 -61,-32 -124,-101 -157,-171 -27,-57 -29,-71 -25,-140 6,-92 35,-157 100,-218 78,-75 110,-85 303,-96 205,-12 1557,-2 1664,12 84,11 141,40 190,95 56,64 74,112 79,206 4,78 2,92 -23,148 -31,68 -103,143 -163,168 -26,11 -94,18 -237,24 -225,9 -1335,9 -1550,-1 z"
       id="path157" />
  </g>
</svg>
