<svg width="24" height="24" viewBox="0 0 24 24" fill="none" xmlns="http://www.w3.org/2000/svg">
<g clip-path="url(#clip0)">
<path d="M15.5676 6.09167H8.4248V17.7579H15.5676V6.09167Z" fill="#FF5F00"/>
<path d="M9.16051 11.926C9.15971 10.8026 9.41442 9.69384 9.90537 8.68349C10.3963 7.67314 11.1107 6.78769 11.9943 6.09415C10.9001 5.23526 9.58643 4.70144 8.20328 4.55368C6.82013 4.40592 5.42331 4.65017 4.17238 5.25853C2.92145 5.86688 1.86684 6.81482 1.12904 7.99405C0.391246 9.17328 0 10.5363 0 11.9273C0 13.3183 0.391246 14.6813 1.12904 15.8605C1.86684 17.0397 2.92145 17.9877 4.17238 18.596C5.42331 19.2044 6.82013 19.4486 8.20328 19.3009C9.58643 19.1531 10.9001 18.6193 11.9943 17.7604C11.1103 17.0666 10.3958 16.1807 9.90479 15.1699C9.41382 14.159 9.15931 13.0497 9.16051 11.926Z" fill="#EB001B"/>
<path d="M23.2906 16.5233V16.2841H23.3939V16.2346H23.1484V16.2841H23.2455V16.5233H23.2906ZM23.7664 16.5233V16.2346H23.6922L23.604 16.4403L23.5157 16.2346H23.4415V16.5233H23.4954V16.3052L23.5757 16.4924H23.6313L23.7117 16.3052V16.5233H23.7664Z" fill="#F79E1B"/>
<path d="M23.9998 11.9261C24.0013 13.319 23.6104 14.6843 22.8719 15.8654C22.1334 17.0465 21.0772 17.9957 19.8242 18.6043C18.5713 19.2129 17.1722 19.4563 15.7873 19.3066C14.4024 19.1569 13.0876 18.6202 11.9937 17.7579C12.8775 17.064 13.5922 16.1784 14.0836 15.1679C14.5751 14.1574 14.8304 13.0484 14.8304 11.9247C14.8304 10.8011 14.5751 9.69207 14.0836 8.68156C13.5922 7.67104 12.8775 6.78543 11.9937 6.09161C13.0876 5.22929 14.4024 4.69254 15.7873 4.54283C17.1722 4.39313 18.5713 4.63652 19.8242 5.24514C21.0772 5.85376 22.1334 6.80298 22.8719 7.9841C23.6104 9.16521 24.0013 10.5304 23.9998 11.9234V11.9261Z" fill="#F79E1B"/>
</g>
<defs>
<clipPath id="clip0">
<rect width="24" height="24" fill="white"/>
</clipPath>
</defs>
</svg>
