<?xml version="1.0" encoding="UTF-8" standalone="no"?>
<svg
   width="24"
   height="24"
   viewBox="0 0 24 24"
   fill="none"
   version="1.1"
   id="svg474"
   sodipodi:docname="mir-color_new.svg"
   inkscape:version="1.1 (c68e22c387, 2021-05-23)"
   xmlns:inkscape="http://www.inkscape.org/namespaces/inkscape"
   xmlns:sodipodi="http://sodipodi.sourceforge.net/DTD/sodipodi-0.dtd"
   xmlns="http://www.w3.org/2000/svg"
   xmlns:svg="http://www.w3.org/2000/svg">
  <sodipodi:namedview
     id="namedview476"
     pagecolor="#ffffff"
     bordercolor="#666666"
     borderopacity="1.0"
     inkscape:pageshadow="2"
     inkscape:pageopacity="0.0"
     inkscape:pagecheckerboard="0"
     showgrid="false"
     inkscape:zoom="32.583333"
     inkscape:cx="11.984655"
     inkscape:cy="6.5677749"
     inkscape:window-width="1920"
     inkscape:window-height="986"
     inkscape:window-x="-11"
     inkscape:window-y="1285"
     inkscape:window-maximized="1"
     inkscape:current-layer="svg474" />
  <defs
     id="defs472">
    <clipPath
       id="clip0">
      <rect
         width="24"
         height="24"
         fill="white"
         id="rect469" />
    </clipPath>
    <linearGradient
       id="paint0_linear"
       x1="46.616001"
       y1="0.94085598"
       x2="65.115997"
       y2="8.4408598"
       gradientUnits="userSpaceOnUse"
       gradientTransform="matrix(0.36973903,0,0,0.36973903,0.01842103,7.2591077)">
      <stop
         stop-color="#01A4E5"
         id="stop101" />
      <stop
         offset="1"
         stop-color="#0479BB"
         id="stop103" />
    </linearGradient>
  </defs>
  <path
     d="M 0.06138903,11.139925 V 7.80959 c 0,-0.2480217 0,-0.2495816 0.234756,-0.2495816 0.616235,0 1.23246797,0.015599 1.84723297,0 0.751221,-0.024958 1.060803,0.4289679 1.213395,0.9593289 0.293447,1.0186015 0.570751,2.0403267 0.858334,3.0605037 0.03272,0.08848 0.07299,0.173555 0.120313,0.254233 0.05823,-0.07824 0.107483,-0.16361 0.146713,-0.254233 C 4.760916,10.59554 5.030862,9.6112543 5.308167,8.6269684 5.409401,8.2635149 5.541472,7.9047423 5.880412,7.7237957 6.062915,7.6267017 6.263276,7.5734484 6.467298,7.5678077 c 0.6631638,-0.015599 1.3322438,-0.00624 2.0012868,-0.015599 0.136434,0 0.18047,0.051476 0.18047,0.196544 0,2.2587133 0,4.5174353 0,6.7761333 0,0.155993 -0.04696,0.193411 -0.183391,0.191858 -0.575166,0 -1.150332,-0.0094 -1.7254608,0 -0.168749,0 -0.206906,-0.06552 -0.205427,-0.227722 0,-1.257261 0,-2.514559 0,-3.771812 0,-0.09359 -0.03668,-0.257379 -0.07776,-0.265177 -0.146713,-0.03276 -0.137913,0.132588 -0.16727,0.229301 -0.378539,1.26196 -0.757078,2.52547 -1.125375,3.792085 -0.0033,0.04004 -0.01464,0.07887 -0.03309,0.113953 -0.01845,0.03509 -0.04367,0.06563 -0.07402,0.08962 -0.03032,0.02403 -0.06507,0.04093 -0.102011,0.04966 -0.0369,0.0088 -0.07513,0.0091 -0.112179,0.001 -0.33894,-0.01719 -0.680801,-0.01405 -1.027061,0 -0.03206,0.0067 -0.06507,0.0064 -0.09706,-9.61e-4 -0.03195,-0.0073 -0.06216,-0.02148 -0.0888,-0.04163 -0.02664,-0.02011 -0.04913,-0.04585 -0.06612,-0.07554 -0.01698,-0.02969 -0.0281,-0.06274 -0.03267,-0.09717 -0.36094,-1.247906 -0.733614,-2.483315 -1.098954,-3.723424 -0.02087,-0.09364 -0.04985,-0.185017 -0.08656,-0.272978 -0.01198,-0.01923 -0.02805,-0.03518 -0.04692,-0.04656 -0.01887,-0.01138 -0.03999,-0.01788 -0.06166,-0.01895 -0.02934,0 -0.06456,0.06239 -0.07336,0.10295 -0.0066,0.06168 -0.0066,0.123952 0,0.185628 0,1.24791 0,2.495816 0,3.734368 0,0.184056 -0.04402,0.248021 -0.227419,0.244878 -0.544341,-0.01246 -1.09014997,0 -1.63595597,0 -0.239157,0 -0.239157,0 -0.239157,-0.243325 z"
     fill="#3da536"
     id="path93"
     style="stroke-width:0.369739" />
  <path
     d="M 9.5981008,11.139741 V 7.8078115 c 0,-0.2449003 0,-0.2480198 0.236226,-0.2480198 0.5458092,-0.0078 1.0842602,-0.0078 1.6359472,0 0.228906,0 0.231827,0 0.233306,0.254261 v 3.6969063 c -0.0067,0.04289 -0.0067,0.08663 0,0.129482 0.02307,0.06371 0.05106,0.125268 0.08364,0.184056 0.04692,-0.04056 0.108555,-0.07018 0.136433,-0.121644 0.07191,-0.129482 0.127634,-0.266767 0.187791,-0.402461 l 1.371879,-3.0511305 c 0.0352,-0.077997 0.07628,-0.1559892 0.117356,-0.2293048 0.07154,-0.1545028 0.185719,-0.2821035 0.32733,-0.3657311 0.141573,-0.083628 0.303814,-0.1192959 0.464983,-0.1022335 0.561967,0.021838 1.126817,0 1.688783,0 0.255305,0 0.259705,0 0.259705,0.2682981 V 14.47475 c 0,0.243362 0,0.243362 -0.236226,0.243362 -0.557567,0 -1.115096,0 -1.672663,0 -0.146712,0 -0.20099,-0.04991 -0.20099,-0.213709 0,-1.257261 0,-2.514558 0,-3.770248 0.0072,-0.05172 0.0072,-0.104273 0,-0.155989 -0.02193,-0.06418 -0.04792,-0.126717 -0.07776,-0.187188 -0.05428,0.0468 -0.130592,0.08267 -0.156991,0.141951 -0.293462,0.683237 -0.586887,1.371136 -0.880349,2.05593 -0.212748,0.492936 -0.425495,0.984282 -0.645564,1.472522 -0.06071,0.12793 -0.132441,0.249574 -0.214227,0.363454 -0.05753,0.09628 -0.137802,0.174886 -0.232788,0.227981 -0.09499,0.0531 -0.201396,0.07883 -0.308621,0.07465 -0.627964,-0.0094 -1.255929,0 -1.8838942,0 -0.234784,0 -0.236226,0 -0.236226,-0.244915 z"
     fill="#3da536"
     id="path95"
     style="stroke-width:0.369739" />
  <path
     d="m 17.120663,7.6020215 c 0.09391,0 0.173112,-0.012479 0.253826,-0.012479 1.512713,0 3.026868,0.017159 4.539582,-0.017158 0.987462,-0.023398 2.0864,0.9671264 2.143636,2.2197135 0.0088,0.1669076 0,0.335375 -0.0074,0.502283 0,0.113872 -0.05868,0.155989 -0.170191,0.155989 -0.925826,-0.0094 -1.851653,-0.01404 -2.778922,-0.02184 -0.246505,0 -0.492973,0 -0.733599,0 -0.896686,-1.34e-4 -1.758732,-0.368401 -2.406219,-1.0279641 -0.414441,-0.4374234 -0.700397,-0.9934407 -0.823113,-1.6004375 -0.01094,-0.065414 -0.01682,-0.1316715 -0.0176,-0.1981069 z"
     fill="url(#paint0_linear)"
     id="path97"
     style="fill:url(#paint0_linear);stroke-width:0.369739" />
  <path
     d="m 23.93011,10.827795 c -0.142424,0.426971 -0.397026,0.801591 -0.733599,1.07945 -0.413812,0.347702 -0.928119,0.53235 -1.455478,0.522552 -0.6852,0 -1.37188,0 -2.054122,0 -0.178991,0 -0.231827,0.06237 -0.228906,0.248021 0.0088,0.609921 0,1.219843 0,1.828175 0,0.155993 -0.0396,0.219957 -0.198069,0.216815 -0.573687,-0.0094 -1.148816,-0.0078 -1.723982,0 -0.146713,0 -0.189269,-0.05457 -0.189269,-0.205871 0,-1.169928 0,-2.339339 0,-3.508195 0,-0.155989 0.05428,-0.204347 0.196627,-0.204347 2.076602,0 4.152724,0 6.228365,0 0.05317,0.0046 0.106078,0.01243 0.158433,0.0234 z"
     fill="#3da536"
     id="path99"
     style="stroke-width:0.369739" />
</svg>
